<?xml version="1.0" encoding="utf-8"?>
<!-- Generator: Adobe Illustrator 17.0.0, SVG Export Plug-In . SVG Version: 6.00 Build 0)  -->
<!DOCTYPE svg PUBLIC "-//W3C//DTD SVG 1.1//EN" "http://www.w3.org/Graphics/SVG/1.1/DTD/svg11.dtd">
<svg version="1.1" id="Layer_1" xmlns="http://www.w3.org/2000/svg" xmlns:xlink="http://www.w3.org/1999/xlink" x="0px" y="0px"
	 width="359.295px" height="94px" viewBox="0 0 359.295 94" enable-background="new 0 0 359.295 94" xml:space="preserve">
<g>
	<path fill="#336683" d="M21.192,67.577c-0.06,3.794,0.603,4.576,4.094,5.058l1.205,0.12v4.937H5.358v-4.937l1.205-0.12
		c3.491-0.482,4.154-1.264,4.094-5.058V46.806c0.06-3.793-0.603-4.575-4.094-5.057l-1.205-0.121v-4.936h21.614
		c6.322,0,9.452,0.662,12.102,2.588c3.01,2.108,4.696,5.66,4.696,9.633c0,7.947-5.84,12.162-16.858,12.162h-5.72
		C21.192,61.075,21.192,67.577,21.192,67.577z M21.192,55.596c0.964,0.121,1.385,0.121,1.987,0.121c5.78,0,9.031-2.469,9.031-6.984
		c0-3.853-2.769-6.502-6.924-6.502c-1.866,0-3.251,0.421-3.673,1.084c-0.361,0.481-0.421,1.143-0.421,3.311V55.596z"/>
	<path opacity="0.6" enable-background="new    " d="M41.187,68.549c-0.036,3.528,1.548,5.58,4.355,5.58
		c1.836,0,3.312-0.972,4.716-3.06l3.023,1.476c-0.9,1.476-1.332,2.052-2.016,2.772c-1.584,1.728-4.068,2.699-6.803,2.699
		c-5.688,0-9.791-3.923-9.791-9.431c0-5.435,3.924-9.287,9.467-9.287c3.492,0,6.372,1.476,7.775,3.995
		c0.648,1.188,0.936,2.7,0.936,5.255L41.187,68.549L41.187,68.549z M46.479,65.778c-0.072-2.268-0.756-3.167-2.375-3.167
		c-1.62,0-2.592,1.188-2.7,3.167H46.479z"/>
	<path opacity="0.6" enable-background="new    " d="M75.493,68.765c0,5.615-3.923,9.25-9.971,9.25c-6.119,0-9.971-3.708-9.971-9.61
		c0-5.436,3.959-9.107,9.791-9.107C71.533,59.299,75.493,62.97,75.493,68.765z M62.103,68.837c0,3.78,1.152,5.688,3.456,5.688
		c2.232,0,3.384-1.944,3.384-5.615c0-3.996-1.116-5.939-3.384-5.939C63.255,62.97,62.103,64.95,62.103,68.837z"/>
	<path opacity="0.6" enable-background="new    " d="M85.394,60.666c2.304-1.08,3.24-1.368,4.824-1.368
		c4.823,0,8.531,3.959,8.531,9.071c0,5.579-3.563,9.646-8.423,9.646c-1.44,0-1.944-0.108-4.319-1.008v2.448
		c0.036,2.124,0.144,2.376,1.583,2.736l1.044,0.252v2.916H77.548v-2.916l1.044-0.252c1.439-0.36,1.548-0.612,1.583-2.736v-12.85
		c0.036-2.124-0.36-2.736-1.979-2.952l-0.648-0.072v-2.916l5.615-1.044h2.231V60.666z M86.007,73.229
		c0.72,0.684,1.835,1.116,2.771,1.116c2.448,0,3.852-2.231,3.852-6.083c0-3.384-1.332-5.472-3.492-5.472
		c-1.116,0-2.339,0.576-3.131,1.476V73.229z"/>
	<path opacity="0.6" enable-background="new    " d="M108.687,71.789c0.036,2.124,0.144,2.34,1.583,2.736l1.116,0.252v2.916h-11.267
		v-2.916l1.152-0.252c1.44-0.396,1.548-0.612,1.584-2.736V59.082c0.036-2.195-0.288-2.591-2.124-2.916l-0.612-0.072v-2.916
		c2.412-0.216,3.96-0.576,6.191-1.548h2.376L108.687,71.789L108.687,71.789z"/>
	<path opacity="0.6" enable-background="new    " d="M119.667,68.549c-0.036,3.528,1.548,5.58,4.355,5.58
		c1.836,0,3.312-0.972,4.716-3.06l3.023,1.476c-0.9,1.476-1.332,2.052-2.016,2.772c-1.584,1.728-4.068,2.699-6.803,2.699
		c-5.688,0-9.791-3.923-9.791-9.431c0-5.435,3.924-9.287,9.467-9.287c3.492,0,6.372,1.476,7.775,3.995
		c0.648,1.188,0.936,2.7,0.936,5.255L119.667,68.549L119.667,68.549z M124.958,65.778c-0.072-2.268-0.756-3.167-2.375-3.167
		c-1.62,0-2.592,1.188-2.7,3.167H124.958z"/>
</g>
<path fill="#336683" d="M94.794,37.554c2.12,5.39,2.604,5.996,5.996,6.602l0.969,0.121v4.966H79.653v-4.966l1.515-0.121
	c2.483-0.182,3.572-0.727,3.572-1.817c0-0.485-0.242-1.514-0.665-2.604l-1.817-5.148H69.236l-1.937,5.209
	c-0.304,0.726-0.546,1.756-0.546,2.18c0,1.15,1.211,1.756,4.482,2.18l0.968,0.121v4.966H53.49v-4.966l0.969-0.121
	c3.391-0.546,4.783-2.06,7.085-7.389L73.536,8h9.387L94.794,37.554z M80.259,29.439l-4.482-11.81l-4.602,11.81H80.259z"/>
<path opacity="0.6" enable-background="new    " d="M113.676,32.549c2.376-1.332,4.284-1.872,6.552-1.872
	c1.943,0,3.203,0.504,4.283,1.691c1.008,1.08,1.332,2.088,1.332,4.032v6.767c0.036,2.124,0.144,2.34,1.584,2.736l1.079,0.252v2.916
	H117.78v-2.916l0.648-0.18c1.331-0.324,1.584-0.792,1.584-2.808v-6.299c0-1.512-0.54-2.304-1.62-2.304s-2.628,0.576-4.104,1.584
	v7.019c0,2.016,0.252,2.484,1.584,2.808l0.647,0.18v2.916h-10.69v-2.916l1.044-0.252c1.439-0.36,1.548-0.612,1.584-2.736v-5.183
	c0.035-2.124-0.36-2.736-1.98-2.952l-0.647-0.072v-2.916L111.445,31h2.231L113.676,32.549L113.676,32.549z"/>
<path opacity="0.6" enable-background="new    " d="M150.682,47.559c-1.619,1.296-2.951,1.835-4.571,1.835
	c-1.691,0-3.275-0.72-4.14-1.835c-1.835,1.224-3.671,1.835-5.723,1.835c-3.42,0-5.724-1.979-5.724-4.931
	c0-2.736,1.8-4.644,5.399-5.723c1.548-0.468,3.275-0.792,5.255-0.972v-1.835c0-1.332-0.72-1.944-2.268-1.944
	c-0.756,0-1.548,0.252-1.979,0.648c-0.252,0.18-0.324,0.432-0.324,0.936c0.036,1.728-1.008,2.772-2.771,2.772
	c-1.512,0-2.663-1.152-2.663-2.7c0-2.88,3.347-4.967,7.99-4.967c2.844,0,5.22,0.72,6.479,1.944c0.972,0.936,1.368,2.087,1.368,3.995
	v7.091c0.036,1.368,0.036,1.368,0.144,1.62c0.072,0.216,0.36,0.396,0.612,0.396s0.252,0,0.899-0.612L150.682,47.559z
	 M141.179,40.648c-3.095,0.576-4.535,1.512-4.535,3.06c0,1.08,0.684,1.8,1.692,1.8s1.907-0.396,2.843-1.26V40.648z"/>
<path opacity="0.6" enable-background="new    " d="M159.287,43.167c0.036,2.124,0.145,2.34,1.584,2.736l1.116,0.252v2.916H150.72
	v-2.916l1.151-0.252c1.44-0.396,1.548-0.612,1.584-2.736V30.461c0.036-2.195-0.288-2.591-2.124-2.916l-0.611-0.072v-2.916
	c2.411-0.216,3.959-0.576,6.191-1.548h2.375L159.287,43.167L159.287,43.167z"/>
<path opacity="0.6" enable-background="new    " d="M176.422,35.644c0.107-0.216,0.144-0.468,0.144-0.684
	c0-0.72-0.396-0.936-1.655-1.008h-0.433V31h9.611v2.916l-0.433,0.108c-1.871,0.468-2.483,1.043-3.599,3.347l-6.191,13.391
	c-1.116,2.412-1.368,2.844-2.124,3.779c-1.26,1.548-3.239,2.484-5.255,2.484c-2.269,0-3.852-1.296-3.852-3.167
	c0-1.692,1.224-2.952,2.843-2.952c0.9,0,1.548,0.288,2.376,1.044c0.181,0.18,0.36,0.288,0.504,0.288
	c0.433,0,1.692-1.692,2.448-3.348l-5.436-12.274c-0.864-2.016-1.188-2.339-2.556-2.591l-0.576-0.072v-2.952h11.194v2.952h-0.396
	c-1.548,0.036-1.979,0.252-1.979,0.864c0,0.216,0.071,0.504,0.144,0.756l2.664,6.768L176.422,35.644z"/>
<path opacity="0.6" enable-background="new    " d="M193.703,34.06v8.711c0,1.872,0.324,2.448,1.296,2.448
	c0.937,0,1.584-0.432,3.204-1.979l2.159,2.556c-2.087,2.52-4.355,3.599-7.595,3.599c-2.124,0-3.527-0.684-4.319-2.124
	c-0.432-0.864-0.576-1.728-0.576-3.923V34.24h-2.735v-2.844c3.132-0.432,4.823-2.412,5.184-6.119h3.383V31h4.932v3.06H193.703z"/>
<path opacity="0.6" enable-background="new    " d="M210.694,43.167c0.036,2.124,0.145,2.34,1.584,2.736l1.116,0.252v2.916h-11.267
	v-2.916l1.151-0.252c1.44-0.396,1.548-0.612,1.584-2.736v-5.183c0.036-2.124-0.359-2.736-1.979-2.952l-0.756-0.072v-2.916
	L208.462,31h2.231L210.694,43.167L210.694,43.167z M210.982,26.214c0,1.943-1.619,3.563-3.563,3.563
	c-1.907,0-3.419-1.548-3.419-3.456s1.619-3.528,3.563-3.528C209.506,22.794,210.982,24.27,210.982,26.214z"/>
<path opacity="0.6" enable-background="new    " d="M234.093,43.887c-1.477,3.492-4.788,5.507-9.071,5.507
	c-5.688,0-9.61-3.815-9.61-9.358c0-5.651,3.887-9.359,9.862-9.359c4.464,0,7.991,2.339,7.991,5.291c0,1.692-1.296,2.952-2.987,2.952
	c-1.548,0-2.988-1.188-2.988-2.448l0.036-1.043c0-0.792-0.936-1.44-2.052-1.44c-2.231,0-3.455,2.052-3.455,5.723
	c0,3.744,1.691,6.191,4.283,6.191c2.088,0,3.779-1.152,5.075-3.528L234.093,43.887z"/>
<path opacity="0.6" enable-background="new    " d="M251.768,36.328l-2.952,0.432c-1.367-1.908-2.843-2.771-4.679-2.771
	c-1.44,0-2.484,0.612-2.484,1.404s0.792,1.26,2.808,1.62l2.7,0.504c2.699,0.504,3.455,0.828,4.428,1.8
	c0.972,0.9,1.476,2.196,1.476,3.6c0,3.636-3.456,6.479-7.955,6.479c-1.728,0-2.844-0.252-4.716-1.08l-0.432,0.9h-2.376l-1.439-6.083
	l2.771-0.576c0.864,1.008,1.188,1.368,1.62,1.728c1.008,0.9,2.556,1.44,3.995,1.44c1.764,0,3.132-0.684,3.132-1.512
	c0-0.864-0.936-1.332-3.168-1.656l-2.304-0.288c-3.743-0.504-5.759-2.375-5.759-5.292c0-3.671,3.06-6.299,7.307-6.299
	c1.692,0,2.7,0.252,4.644,1.188l0.432-0.864h2.269L251.768,36.328z"/>
<g>
	<path opacity="0.8" enable-background="new    " d="M233.595,73.74c-2.159,0-3.876-1.661-3.876-3.71c0-2.049,1.772-3.71,3.876-3.71
		h0.997c2.159,0,3.876,1.661,3.876,3.71c0,2.104-1.716,3.71-3.876,3.71H233.595z"/>
	<path fill="#336683" d="M266.479,57.52l-1.975,4.641h1.678c2.766,0,3.654,0.198,4.74,0.987c1.382,0.988,2.172,2.567,2.172,4.147
		c0,1.777-0.987,3.456-2.567,4.443c-0.79,0.494-2.271,0.691-4.345,0.691H253.05c-4.641,0-6.912-1.679-6.912-5.134
		c0-3.357,2.37-5.135,6.715-5.135l15.008-35.25h-5.628c-2.666,0-3.752-0.197-4.739-0.987c-1.481-0.987-2.271-2.469-2.271-4.147
		c0-1.679,0.987-3.357,2.567-4.345c0.987-0.592,1.777-0.691,4.443-0.691h21.624l19.649,45.42c2.666,0.099,3.555,0.296,4.641,0.987
		c1.382,0.988,2.172,2.567,2.172,4.147c0,1.777-0.987,3.555-2.566,4.443c-0.79,0.494-2.271,0.691-4.345,0.691h-13.726
		c-2.369,0-3.752-0.296-4.739-0.987c-1.382-0.987-2.172-2.469-2.172-4.147c0-1.777,0.987-3.456,2.567-4.345
		c0.987-0.592,1.777-0.79,4.344-0.79h1.679l-1.876-4.641h-23.006V57.52z M277.932,30.662l-7.207,16.687h14.316L277.932,30.662z"/>
	<path fill="#336683" d="M342.806,62.259h9.577c2.666,0,3.653,0.198,4.74,0.988c1.382,0.987,2.172,2.468,2.172,4.048
		c0,3.456-2.37,5.134-6.912,5.134h-29.819c-4.542,0-6.911-1.679-6.911-5.134c0-1.679,0.987-3.357,2.566-4.345
		c0.988-0.592,1.777-0.691,4.345-0.691h9.578V26.91h-9.578c-2.567,0-3.653-0.197-4.739-0.987c-1.382-0.889-2.172-2.469-2.172-4.147
		c0-1.679,0.987-3.357,2.566-4.345c0.988-0.592,1.777-0.691,4.345-0.691h29.819c2.765,0,3.653,0.197,4.74,0.987
		c1.382,0.987,2.172,2.468,2.172,4.048c0,1.777-0.987,3.456-2.567,4.443c-0.889,0.494-2.073,0.691-4.345,0.691h-9.577V62.259z"/>
</g>
</svg>
