<?xml version="1.0" encoding="utf-8"?>
<!-- Generator: Adobe Illustrator 17.0.0, SVG Export Plug-In . SVG Version: 6.00 Build 0)  -->
<!DOCTYPE svg PUBLIC "-//W3C//DTD SVG 1.1//EN" "http://www.w3.org/Graphics/SVG/1.1/DTD/svg11.dtd">
<svg version="1.1" id="Layer_1" xmlns="http://www.w3.org/2000/svg" xmlns:xlink="http://www.w3.org/1999/xlink" x="0px" y="0px"
	 width="261.295px" height="66.5px" viewBox="0 0 261.295 66.5" enable-background="new 0 0 261.295 66.5" xml:space="preserve">
<g>
	<path fill="#336683" d="M29.634,50.298c-0.076,4.858,0.772,5.86,5.243,6.477l1.543,0.154v6.322H9.358v-6.322l1.543-0.154
		c4.471-0.617,5.319-1.619,5.243-6.477V23.7c0.076-4.857-0.772-5.859-5.243-6.476L9.358,17.07v-6.321h27.677
		c8.096,0,12.104,0.847,15.497,3.314c3.855,2.699,6.013,7.247,6.013,12.335c0,10.177-7.479,15.574-21.586,15.574h-7.325V50.298z
		 M29.634,34.956c1.234,0.155,1.774,0.155,2.544,0.155c7.401,0,11.565-3.161,11.565-8.944c0-4.934-3.546-8.326-8.866-8.326
		c-2.39,0-4.163,0.54-4.703,1.388c-0.462,0.616-0.54,1.464-0.54,4.24V34.956z"/>
</g>
<path fill="#336683" d="M116.84,48.438c2.714,6.902,3.335,7.678,7.678,8.454l1.241,0.155v6.359H97.452v-6.359l1.94-0.155
	c3.179-0.234,4.574-0.931,4.574-2.327c0-0.621-0.309-1.939-0.852-3.335l-2.327-6.592H84.112l-2.481,6.67
	c-0.389,0.93-0.699,2.249-0.699,2.792c0,1.473,1.551,2.249,5.74,2.792l1.239,0.155v6.359H63.949v-6.359l1.241-0.155
	c4.343-0.699,6.125-2.637,9.072-9.462l15.355-36.837h12.02L116.84,48.438z M98.228,38.047l-5.74-15.123l-5.893,15.123H98.228z"/>
<g>
	<path opacity="0.8" fill="#336683" d="M135.595,63.74c-2.159,0-3.876-1.661-3.876-3.71c0-2.049,1.772-3.71,3.876-3.71h0.997
		c2.159,0,3.876,1.661,3.876,3.71c0,2.104-1.716,3.71-3.876,3.71H135.595z"/>
	<path fill="#336683" d="M168.479,47.52l-1.975,4.641h1.678c2.766,0,3.654,0.198,4.74,0.987c1.382,0.988,2.172,2.567,2.172,4.147
		c0,1.777-0.987,3.456-2.567,4.443c-0.79,0.494-2.271,0.691-4.345,0.691H155.05c-4.641,0-6.912-1.679-6.912-5.134
		c0-3.357,2.37-5.135,6.715-5.135l15.008-35.25h-5.628c-2.666,0-3.752-0.197-4.739-0.987c-1.481-0.987-2.271-2.469-2.271-4.147
		c0-1.679,0.987-3.357,2.567-4.345c0.987-0.592,1.777-0.691,4.443-0.691h21.624l19.649,45.42c2.666,0.099,3.555,0.296,4.641,0.987
		c1.382,0.988,2.172,2.567,2.172,4.147c0,1.777-0.987,3.555-2.566,4.443c-0.79,0.494-2.271,0.691-4.345,0.691h-13.726
		c-2.369,0-3.752-0.296-4.739-0.987c-1.382-0.987-2.172-2.469-2.172-4.147c0-1.777,0.987-3.456,2.567-4.345
		c0.987-0.592,1.777-0.79,4.344-0.79h1.679l-1.876-4.641H168.479z M179.932,20.662l-7.207,16.687h14.316L179.932,20.662z"/>
	<path fill="#336683" d="M244.806,52.259h9.577c2.666,0,3.653,0.198,4.74,0.988c1.382,0.987,2.172,2.468,2.172,4.048
		c0,3.456-2.37,5.134-6.912,5.134h-29.819c-4.542,0-6.911-1.679-6.911-5.134c0-1.679,0.987-3.357,2.566-4.345
		c0.988-0.592,1.777-0.691,4.345-0.691h9.578V16.91h-9.578c-2.567,0-3.653-0.197-4.739-0.987c-1.382-0.889-2.172-2.469-2.172-4.147
		c0-1.679,0.987-3.357,2.566-4.345c0.988-0.592,1.777-0.691,4.345-0.691h29.819c2.765,0,3.653,0.197,4.74,0.987
		c1.382,0.987,2.172,2.468,2.172,4.048c0,1.777-0.987,3.456-2.567,4.443c-0.889,0.494-2.073,0.691-4.345,0.691h-9.577V52.259z"/>
</g>
</svg>
